<svg width="97" height="24" viewBox="0 0 97 24" fill="none" xmlns="http://www.w3.org/2000/svg">
<path fill-rule="evenodd" clip-rule="evenodd" d="M11 6V3C11 2.44772 11.4477 2 12 2C12.5523 2 13 2.44772 13 3V6C13 6.55228 12.5523 7 12 7C11.4477 7 11 6.55228 11 6ZM11 21V18C11 17.4477 11.4477 17 12 17C12.5523 17 13 17.4477 13 18V21C13 21.5523 12.5523 22 12 22C11.4477 22 11 21.5523 11 21ZM15.634 3.70577C15.9101 3.22748 16.5217 3.0636 17 3.33975C17.4783 3.61589 17.6422 4.22748 17.366 4.70577L15.866 7.30385C15.5899 7.78214 14.9783 7.94602 14.5 7.66987C14.0217 7.39373 13.8578 6.78214 14.134 6.30385L15.634 3.70577ZM9.5 16.3301C9.02171 16.054 8.41012 16.2179 8.13397 16.6962L6.63397 19.2942C6.35783 19.7725 6.52171 20.3841 7 20.6603C7.47829 20.9364 8.08988 20.7725 8.36603 20.2942L9.86603 17.6962C10.1422 17.2179 9.97829 16.6063 9.5 16.3301ZM19.2942 6.63397C19.7725 6.35783 20.3841 6.52171 20.6603 7C20.9364 7.47829 20.7725 8.08988 20.2942 8.36603L17.6962 9.86603C17.2179 10.1422 16.6063 9.97829 16.3301 9.5C16.054 9.02171 16.2179 8.41012 16.6962 8.13397L19.2942 6.63397ZM7.66987 14.5C7.39373 14.0217 6.78214 13.8578 6.30385 14.134L3.70577 15.634C3.22748 15.9101 3.0636 16.5217 3.33975 17C3.61589 17.4783 4.22748 17.6422 4.70577 17.366L7.30385 15.866C7.78214 15.5899 7.94602 14.9783 7.66987 14.5ZM21 11C21.5523 11 22 11.4477 22 12C22 12.5523 21.5523 13 21 13H18C17.4477 13 17 12.5523 17 12C17 11.4477 17.4477 11 18 11H21ZM7 12C7 11.4477 6.55228 11 6 11H3C2.44772 11 2 11.4477 2 12C2 12.5523 2.44772 13 3 13H6C6.55228 13 7 12.5523 7 12ZM20.2942 15.634C20.7725 15.9101 20.9364 16.5217 20.6603 17C20.3841 17.4783 19.7725 17.6422 19.2942 17.366L16.6962 15.866C16.2179 15.5899 16.054 14.9783 16.3301 14.5C16.6063 14.0217 17.2179 13.8578 17.6962 14.134L20.2942 15.634ZM7.66987 9.5C7.94602 9.02171 7.78214 8.41012 7.30385 8.13397L4.70577 6.63397C4.22748 6.35783 3.61589 6.52171 3.33975 7C3.0636 7.47829 3.22748 8.08988 3.70577 8.36603L6.30385 9.86603C6.78214 10.1422 7.39373 9.97829 7.66987 9.5ZM17.366 19.2942C17.6422 19.7725 17.4783 20.3841 17 20.6603C16.5217 20.9364 15.9101 20.7725 15.634 20.2942L14.134 17.6962C13.8578 17.2179 14.0217 16.6063 14.5 16.3301C14.9783 16.054 15.5899 16.2179 15.866 16.6962L17.366 19.2942ZM9.5 7.66987C9.97829 7.39373 10.1422 6.78214 9.86603 6.30385L8.36603 3.70577C8.08988 3.22748 7.47829 3.0636 7 3.33975C6.52171 3.61589 6.35783 4.22748 6.63397 4.70577L8.13397 7.30385C8.41012 7.78214 9.02171 7.94602 9.5 7.66987Z" fill="url(#paint0_angular)"/>
<path d="M40.7407 15.9248H35.5029V6.02197H32.9961V18H40.7407V15.9248ZM46.1827 18.1909C48.8722 18.1909 50.5904 16.4727 50.5904 13.5425C50.5904 10.6538 48.8473 8.91064 46.1827 8.91064C43.5182 8.91064 41.775 10.6621 41.775 13.5425C41.775 16.4644 43.4933 18.1909 46.1827 18.1909ZM46.1827 16.3398C44.9874 16.3398 44.232 15.3354 44.232 13.5508C44.232 11.7827 45.004 10.7617 46.1827 10.7617C47.3614 10.7617 48.1251 11.7827 48.1251 13.5508C48.1251 15.3354 47.3697 16.3398 46.1827 16.3398ZM55.4929 16.3896C54.6711 16.3896 54.1232 15.9746 54.1232 15.3105C54.1232 14.6797 54.6379 14.2729 55.5427 14.2065L57.4187 14.0903V14.7378C57.4187 15.7007 56.5471 16.3896 55.4929 16.3896ZM54.696 18.1411C55.8083 18.1411 56.9123 17.585 57.4104 16.6387H57.4602V18H59.801V11.8823C59.801 10.0894 58.3151 8.91064 56.0324 8.91064C53.675 8.91064 52.2058 10.0977 52.1145 11.8242H54.3308C54.447 11.1685 55.0197 10.7202 55.9245 10.7202C56.8376 10.7202 57.4187 11.2017 57.4187 12.0317V12.6211L55.1774 12.7539C52.9611 12.8867 51.716 13.8247 51.716 15.4434C51.716 17.0454 53.0026 18.1411 54.696 18.1411ZM64.886 18.1411C66.1976 18.1411 67.2269 17.4521 67.6585 16.4727H67.7V18H70.0906V6.02197H67.6668V10.6289H67.617C67.1854 9.64111 66.1893 8.96045 64.9026 8.96045C62.6697 8.96045 61.2586 10.7119 61.2586 13.5342C61.2586 16.3813 62.6614 18.1411 64.886 18.1411ZM65.7078 10.9028C66.9114 10.9028 67.6834 11.9321 67.6834 13.5508C67.6834 15.1777 66.9114 16.1904 65.7078 16.1904C64.4876 16.1904 63.7405 15.186 63.7405 13.5508C63.7405 11.9238 64.4876 10.9028 65.7078 10.9028ZM71.9633 18H74.3871V9.10156H71.9633V18ZM73.1669 7.89795C73.8725 7.89795 74.4286 7.3335 74.4286 6.65283C74.4286 5.96387 73.8725 5.40771 73.1669 5.40771C72.4613 5.40771 71.9052 5.96387 71.9052 6.65283C71.9052 7.3335 72.4613 7.89795 73.1669 7.89795ZM76.2183 18H78.6421V12.895C78.6421 11.7412 79.3311 10.9443 80.4185 10.9443C81.5059 10.9443 82.0537 11.6084 82.0537 12.7705V18H84.4775V12.2642C84.4775 10.1807 83.3652 8.93555 81.3896 8.93555C80.02 8.93555 79.082 9.58301 78.6089 10.687H78.5591V9.10156H76.2183V18ZM90.3346 16.1074C89.131 16.1074 88.3839 15.1611 88.3839 13.5342C88.3839 11.9155 89.1393 10.9028 90.3346 10.9028C91.5465 10.9028 92.3185 11.9321 92.3185 13.5342C92.3185 15.1445 91.5465 16.1074 90.3346 16.1074ZM90.2931 21.3535C92.9576 21.3535 94.734 20.0005 94.734 17.8755V9.10156H92.3434V10.6538H92.3019C91.837 9.63281 90.8326 8.96045 89.5543 8.96045C87.2965 8.96045 85.902 10.6953 85.902 13.5176C85.902 16.2983 87.338 17.9751 89.5128 17.9751C90.7994 17.9751 91.8453 17.3276 92.2604 16.3813H92.3102V17.9419C92.3102 18.9712 91.6129 19.6685 90.3595 19.6685C89.4381 19.6685 88.7408 19.2451 88.5499 18.6309H86.1759C86.3668 20.2163 87.9522 21.3535 90.2931 21.3535Z" fill="#828282"/>
<defs>
<radialGradient id="paint0_angular" cx="0" cy="0" r="1" gradientUnits="userSpaceOnUse" gradientTransform="translate(12 12) scale(10)">
<stop offset="0.0309635" stop-color="#B3B3B3"/>
<stop offset="0.0345659" stop-color="#A6A6A6"/>
<stop offset="0.214295" stop-color="#A6A6A6"/>
<stop offset="0.220105" stop-color="#D9D9D9"/>
<stop offset="0.872386" stop-color="#DBDBDB"/>
<stop offset="0.87557" stop-color="#BFBFBF"/>
<stop offset="0.950976" stop-color="#BFBFBF"/>
<stop offset="0.953556" stop-color="#B3B3B3"/>
</radialGradient>
</defs>
</svg>
